<?xml version="1.0" encoding="UTF-8"?>
<!DOCTYPE svg PUBLIC "-//W3C//DTD SVG 1.1//EN" "http://www.w3.org/Graphics/SVG/1.1/DTD/svg11.dtd">
<!-- Creator: CorelDRAW Home & Student 2019 -->
<svg xmlns="http://www.w3.org/2000/svg" xml:space="preserve" width="300px" height="300px" version="1.1" shape-rendering="geometricPrecision" text-rendering="geometricPrecision" image-rendering="optimizeQuality" fill-rule="evenodd" clip-rule="evenodd"
viewBox="0 0 300 300"
 xmlns:xlink="http://www.w3.org/1999/xlink">
 <g id="Warstwa_x0020_1">
  <metadata id="CorelCorpID_0Corel-Layer"/>
  <g id="_898480464">
   <path fill="#31A869" d="M66.43 140.93c6.51,-3.67 8.63,2.24 7.41,7.77 -0.6,2.7 -5.04,8.18 -7.08,9.25 -10.3,5.45 -10.35,-11.39 -0.33,-17.02zm-41.39 12.68c-4.27,-2.04 -4.29,-4.63 -4.18,-9.17 0.12,-4.94 1.46,-6.91 4.97,-9.16 7.28,3.85 5.59,15.79 -0.79,18.33zm191.98 -86.76c32.55,-8.81 38.41,53.22 8.1,59.42 -34.03,6.96 -38.17,-51.28 -8.1,-59.42zm-94.79 40.48c-1.6,-13.33 4.11,-43.03 22.4,-37.96 8,2.21 11.86,10.76 12.68,18.68 1.59,15.37 -4.73,18.05 -8.44,22.14 -4.46,1.36 -6.33,3.68 -11.49,4.68 -4.06,2.34 -8.18,2.07 -12.58,0.61l0.39 2.8c-6.77,1.4 -29.33,8.27 -33.6,12.15 3,4.72 6.76,10.43 4.56,17.04 -0.9,2.72 -1.55,3.45 -3.87,3.94 -3.86,-4.98 -1.47,-12.59 -9.54,-17.85 -10.82,-7.03 -22.45,-4.53 -33.62,0.46 -4.01,1.79 -5.99,2.44 -9.13,-1.44 -17.56,-21.66 -37.8,18.27 -29.26,37.82 15.1,34.55 110.71,20.08 139.38,16.2 15.15,-2.05 32.12,-5.07 46.82,-9.41 9.08,-2.69 32.13,-12.89 34.98,-21.06 -3.3,-1.18 -8.1,-0.43 -10.59,-2.52 2.74,-10.58 32.33,-7.49 29.39,11.78 -3.47,0.32 -5.05,-3.87 -8.92,-5.38l-5.52 5.59c-15.38,17.4 -30.95,19.62 -53.01,25.18 -17.74,4.47 -60.69,8.34 -80.11,9.81 -1.14,2.98 -2.45,8.41 -6.22,8.63 -4.06,0.23 -5.17,-4.69 -5.95,-7.92 -5.02,-0.39 -10.08,0.42 -15.11,0.59 -5.47,0.19 -10.26,-0.39 -15.63,-0.67 -4.58,-0.25 -9.22,-0.77 -13.74,-1.66 -3.9,-0.78 -9.27,-2.98 -12.92,-2.6 0.37,2.27 3.71,6.5 5.27,8.67 3.77,5.21 22.24,12.55 28.23,14.03 29.74,7.31 73.05,9.81 103.17,7.24 15.96,-1.36 32.01,-5.25 47.29,-9.39 -0.73,0.9 -0.19,0.33 -1.33,1.48l-5.27 4.15c-14.84,10.66 -40.52,15.29 -58.45,15.34 -4.17,0.02 -8.59,-0.59 -12.58,-0.33 4.35,4.61 26.64,7.99 33.68,8.28 21.16,0.88 47.8,-6.86 66.41,-16.88 14.03,-7.55 14.35,-8.93 25.34,-16.92l9.69 -10.61c9.48,-14.27 17.05,-25.04 16.44,-46.69 -0.31,-10.92 -3.58,-23.4 -9.43,-32.56 -10.56,-16.57 -13.16,-12.6 -22.02,-20.6 3.71,-41.8 -30.72,-53.76 -46.42,-46.04 -20.41,10.03 -20.55,25.05 -25.96,32.52 -3.08,-2.55 -3.16,-8.83 -3.58,-12.61l-9.72 -0.52c-3.74,-8.22 -6.63,-13.43 -14.96,-17.04 -16.27,-7.05 -32.58,3.17 -37.92,21.3 -1.97,6.67 -3.95,22.08 0.77,27.55z"/>
   <path fill="#002231" d="M90.98 201.3l12.17 -0.71c19.42,-1.47 62.37,-5.34 80.11,-9.81 22.06,-5.56 37.63,-7.78 53.01,-25.18l5.52 -5.59c3.87,1.51 5.45,5.7 8.92,5.38 2.94,-19.27 -26.65,-22.36 -29.39,-11.78 2.49,2.09 7.29,1.34 10.59,2.52 -2.85,8.17 -25.9,18.37 -34.98,21.06 -14.7,4.34 -31.67,7.36 -46.82,9.41 -28.67,3.88 -124.28,18.35 -139.38,-16.2 -8.54,-19.55 11.7,-59.48 29.26,-37.82 3.14,3.88 5.12,3.23 9.13,1.44 11.17,-4.99 22.8,-7.49 33.62,-0.46 8.07,5.26 5.68,12.87 9.54,17.85 2.32,-0.49 2.97,-1.22 3.87,-3.94 2.2,-6.61 -1.56,-12.32 -4.56,-17.04 4.27,-3.88 26.83,-10.75 33.6,-12.15l-0.39 -2.8c-1.4,-3.61 -2.07,-3.9 -2.57,-8.15 -4.72,-5.47 -2.74,-20.88 -0.77,-27.55 5.34,-18.13 21.65,-28.35 37.92,-21.3 8.33,3.61 11.22,8.82 14.96,17.04l9.72 0.52c0.42,3.78 0.5,10.06 3.58,12.61 5.41,-7.47 5.55,-22.49 25.96,-32.52 15.7,-7.72 50.13,4.24 46.42,46.04 8.86,8 11.46,4.03 22.02,20.6 5.85,9.16 9.12,21.64 9.43,32.56 0.61,21.65 -6.96,32.42 -16.44,46.69l-9.69 10.61c-10.99,7.99 -11.31,9.37 -25.34,16.92 -18.61,10.02 -45.25,17.76 -66.41,16.88 -7.04,-0.29 -29.33,-3.67 -33.68,-8.28 3.99,-0.26 8.41,0.35 12.58,0.33 17.93,-0.05 43.61,-4.68 58.45,-15.34l5.27 -4.15c1.14,-1.15 0.6,-0.58 1.33,-1.48 -15.28,4.14 -31.33,8.03 -47.29,9.39 -30.12,2.57 -73.43,0.07 -103.17,-7.24 -5.99,-1.48 -24.46,-8.82 -28.23,-14.03 -1.56,-2.17 -4.9,-6.4 -5.27,-8.67 3.65,-0.38 9.02,1.82 12.92,2.6 4.52,0.89 9.16,1.41 13.74,1.66 5.37,0.28 10.16,0.86 15.63,0.67 5.03,-0.17 10.09,-0.98 15.11,-0.59zm-42.08 21.12c7.21,2.1 13.7,5.41 21.61,7.09 8.51,1.8 17,3.19 25.65,4.2 5.74,0.67 21.86,0.99 25.79,3.76 6.27,4.42 11.77,7.8 18.94,10.76 52.31,21.64 137.75,-11.62 155.36,-67.22 7.31,-23.09 4.16,-50.63 -11.42,-69.66 -2.81,-3.43 -3.92,-4.7 -7.43,-7.46 -18.6,-14.64 -1.65,-2.68 -12.64,-31.25 -4.97,-7.83 -6.67,-13.39 -15.12,-19.13 -15.79,-10.73 -34.48,-12.06 -49.41,1.05 -17.41,15.29 -7.48,13.17 -19.66,12.74 -5.82,-8.16 -10.16,-15 -21.19,-18.13 -20.18,-5.71 -40.27,7.14 -46.17,28.55 -4.87,17.65 -1.1,22.34 0.19,34.67 -11.13,3.46 -18.38,7.37 -28.81,12.25 -8.43,-3.43 -10.78,-4.47 -20.44,-3.61 -6.99,0.61 -13.2,4.02 -18.72,4.62 -2.92,-2.33 -3.79,-4.5 -7.25,-6.09 -10.2,-4.66 -20.05,0.5 -26.54,8.31 -8,9.63 -14,26.28 -10.73,39.1 5.74,22.57 21.22,22.29 23.3,28.25 7.29,20.94 15.33,19.58 24.69,27.2z"/>
   <path fill="#F9F2E0" d="M221.94 87c13.73,-5.49 17.62,27.44 5.01,31.84 -13.92,4.85 -17.92,-26.67 -5.01,-31.84zm-4.92 -20.15c-30.07,8.14 -25.93,66.38 8.1,59.42 30.31,-6.2 24.45,-68.23 -8.1,-59.42z"/>
   <path fill="#F9F2E0" d="M122.23 107.33c0.5,4.25 1.17,4.54 2.57,8.15 4.4,1.46 8.52,1.73 12.58,-0.61 -3.68,-4.92 -4.97,-7.77 -4.75,-14.29 0.14,-4.31 1.94,-11.05 5.85,-13.25 11.37,-6.42 12.58,15.21 10.39,22.86 3.71,-4.09 10.03,-6.77 8.44,-22.14 -0.82,-7.92 -4.68,-16.47 -12.68,-18.68 -18.29,-5.07 -24,24.63 -22.4,37.96z"/>
   <path fill="#002231" d="M221.94 87c-12.91,5.17 -8.91,36.69 5.01,31.84 12.61,-4.4 8.72,-37.33 -5.01,-31.84z"/>
   <path fill="#002231" d="M137.38 114.87c5.16,-1 7.03,-3.32 11.49,-4.68 2.19,-7.65 0.98,-29.28 -10.39,-22.86 -3.91,2.2 -5.71,8.94 -5.85,13.25 -0.22,6.52 1.07,9.37 4.75,14.29z"/>
   <path fill="#002231" d="M66.43 140.93c-10.02,5.63 -9.97,22.47 0.33,17.02 2.04,-1.07 6.48,-6.55 7.08,-9.25 1.22,-5.53 -0.9,-11.44 -7.41,-7.77z"/>
   <path fill="#002231" d="M25.04 153.61c6.38,-2.54 8.07,-14.48 0.79,-18.33 -3.51,2.25 -4.85,4.22 -4.97,9.16 -0.11,4.54 -0.09,7.13 4.18,9.17z"/>
   <path fill="#F9F2E0" d="M90.98 201.3c0.78,3.23 1.89,8.15 5.95,7.92 3.77,-0.22 5.08,-5.65 6.22,-8.63l-12.17 0.71z"/>
  </g>
 </g>
</svg>
